<?xml version="1.0" encoding="UTF-8"?>
<!-- Generator: Adobe Illustrator 20.0.0, SVG Export Plug-In . SVG Version: 6.00 Build 0)  -->
<svg version="1.1" id="Layer_1" xmlns="http://www.w3.org/2000/svg" xmlns:xlink="http://www.w3.org/1999/xlink" x="0px" y="0px" viewBox="0 0 40.5 40.7" style="enable-background:new 0 0 40.5 40.7;" xml:space="preserve">
<style type="text/css">
	.st0{fill:#FFFFFF;}
</style>
<path class="st0" d="M20.2,10.2c2.9,0,5.5,1.2,7.4,3.1h12.9V8h0c0-4.4-3.6-8-8-8H10.6v10.1H9V0H8C7.9,0,7.9,0,7.8,0v10.1H6.2V0.2  C5.8,0.3,5.4,0.4,5,0.6v9.5H3.4V1.5C1.3,2.9,0,5.3,0,8v5.3h12.8C14.7,11.4,17.3,10.2,20.2,10.2z M29.9,4.6c0-0.7,0.6-1.3,1.3-1.3  h4.3c0.7,0,1.3,0.6,1.3,1.3v4.4c0,0.7-0.6,1.3-1.3,1.3h-4.3c-0.7,0-1.3-0.6-1.3-1.3V4.6z"/>
<path class="st0" d="M25.5,14.5c-0.6-0.5-1.2-0.9-2-1.3c-1-0.5-2.1-0.7-3.3-0.7c-1.2,0-2.3,0.3-3.3,0.7c-0.7,0.3-1.4,0.8-2,1.3  c-1.7,1.5-2.7,3.6-2.7,6c0,4.4,3.6,8,8,8c4.4,0,8-3.6,8-8C28.2,18.1,27.1,16,25.5,14.5z M20.2,26.4c-3.3,0-5.9-2.6-5.9-5.9  c0-3.3,2.6-5.9,5.9-5.9s5.9,2.6,5.9,5.9C26.1,23.8,23.5,26.4,20.2,26.4z"/>
<path class="st0" d="M8,40.7h24.5c4.4,0,8-3.6,8-8V14.5H28.7c1.2,1.7,1.9,3.8,1.9,6c0,5.7-4.6,10.4-10.4,10.4  c-5.7,0-10.4-4.6-10.4-10.4c0-2.2,0.7-4.3,1.9-6H0v18.2C0,37.1,3.6,40.7,8,40.7z"/>
</svg>