<?xml version="1.0" encoding="UTF-8" standalone="no"?>
<svg width="24px" height="19px" viewBox="0 0 24 19" version="1.1" xmlns="http://www.w3.org/2000/svg" xmlns:xlink="http://www.w3.org/1999/xlink">
    <!-- Generator: Sketch 3.8.3 (29802) - http://www.bohemiancoding.com/sketch -->
    <title>Fill 1</title>
    <desc>Created with Sketch.</desc>
    <defs/>
    <g id="Welcome" stroke="none" stroke-width="1" fill="none" fill-rule="evenodd">
        <g id="Home---Splash-page" transform="translate(-1131.000000, -1130.000000)" fill="#FFFFFF">
            <g id="footer" transform="translate(0.000000, 1072.000000)">
                <path d="M1131.69224,74.8749417 C1133.78704,76.2107944 1136.27529,76.9906528 1138.94837,76.9906528 C1147.73747,76.9906528 1152.70263,69.6070917 1152.40329,62.9847806 C1153.32796,62.3210833 1154.13073,61.4921667 1154.76512,60.5476528 C1153.91586,60.922075 1153.00367,61.1752611 1152.04613,61.2886028 C1153.02351,60.7066694 1153.77413,59.7835833 1154.12733,58.684 C1153.21287,59.2236417 1152.19977,59.6155444 1151.12147,59.8264389 C1150.2586,58.9112472 1149.02837,58.3400278 1147.6666,58.3400278 C1144.61142,58.3400278 1142.36525,61.175825 1143.0552,64.1215806 C1139.12128,63.9247833 1135.63296,62.0504167 1133.29892,59.20165 C1132.05848,61.317925 1132.65545,64.0866194 1134.76386,65.4878833 C1133.98774,65.4636361 1133.25753,65.2516139 1132.61917,64.8991833 C1132.56814,67.0803056 1134.13911,69.1198917 1136.41589,69.5755139 C1135.74975,69.7553944 1135.02011,69.7965583 1134.27857,69.6555861 C1134.88065,71.5260056 1136.62906,72.8872333 1138.70005,72.9250139 C1136.7107,74.4768361 1134.20374,75.1692917 1131.69224,74.8749417" id="Fill-1"/>
            </g>
        </g>
    </g>
</svg>